<?xml version="1.0" encoding="UTF-8" standalone="no"?>
<svg xmlns="http://www.w3.org/2000/svg"
     width="2069"
     height="152"
     viewBox="-5 437 2069 152">
  <title>TERMS OF USE custom wordmark</title>
  <desc>TERMS OF USE drawn on the GLAZE wordmark's construction — same cap height, 8.5 stroke and stemless three-bar E.</desc>
  <g id="TERMS-OF-USE-wordmark"
     fill="none"
     stroke="#f7d9e5"
     stroke-width="8.5"
     stroke-linecap="butt"
     stroke-linejoin="miter"
     stroke-miterlimit="10">
    <path id="T-bar"    d="M 0 447 H 125"/>
    <path id="T-stem"   d="M 62.5 447 V 582"/>
    <path id="E1-top"    d="M 203 447 H 310"/>
    <path id="E1-middle" d="M 203 514 H 295"/>
    <path id="E1-bottom" d="M 203 583 H 317"/>
    <path id="R-bowl"   d="M 389 582 V 447 H 451 A 40 33.5 0 0 1 451 514 H 389"/>
    <path id="R-leg"    d="M 451 514 L 507 582"/>
    <path id="M"        d="M 579 582 V 447 L 654 545 L 729 447 V 582"/>
    <path id="S1"       d="M 911 470 C 899 453 881 444 859 444 C 825 444 801 460 801 483 C 801 505 821 513 859 514 C 897 515 917 524 917 547 C 917 570 892 584 857 584 C 834 584 814 576 801 559"/>
    <path id="O"        d="M 1146.5 444 C 1190.4 444 1226 475.3 1226 514 C 1226 552.7 1190.4 584 1146.5 584 C 1102.6 584 1067 552.7 1067 514 C 1067 475.3 1102.6 444 1146.5 444 Z"/>
    <path id="F-stem"   d="M 1298 447 V 582"/>
    <path id="F-top"    d="M 1298 447 H 1405"/>
    <path id="F-middle" d="M 1298 514 H 1390"/>
    <path id="U"        d="M 1555 447 V 514 C 1555 552.7 1584.1 584 1620 584 C 1655.9 584 1685 552.7 1685 514 V 447"/>
    <path id="S2"       d="M 1867 470 C 1855 453 1837 444 1815 444 C 1781 444 1757 460 1757 483 C 1757 505 1777 513 1815 514 C 1853 515 1873 524 1873 547 C 1873 570 1848 584 1813 584 C 1790 584 1770 576 1757 559"/>
    <path id="E2-top"    d="M 1945 447 H 2052"/>
    <path id="E2-middle" d="M 1945 514 H 2037"/>
    <path id="E2-bottom" d="M 1945 583 H 2059"/>
  </g>
</svg>
